HIERARCHY
ROOT Hips
{
  OFFSET -46.9311 81.1086 7.42172
  CHANNELS 6 Xposition Yposition Zposition Zrotation Xrotation Yrotation
  JOINT Spine
  {
    OFFSET -0.000355721 21.3001 -0.016921
    CHANNELS 3 Zrotation Xrotation Yrotation
    JOINT LeftArm
    {
      OFFSET 13.5181 21.3012 0
      CHANNELS 3 Zrotation Xrotation Yrotation
      JOINT LeftForeArm
      {
        OFFSET 24.5783 0 0
        CHANNELS 3 Zrotation Xrotation Yrotation
        JOINT LeftHand
        {
          OFFSET 24.5783 0 0
          CHANNELS 3 Zrotation Xrotation Yrotation
          End Site
          {
            OFFSET 7.32568 1.52588e-05 0.0169305
          }
        }
      }
    }
    JOINT Head
    {
      OFFSET 0 27.4458 -0.00489235
      CHANNELS 3 Zrotation Xrotation Yrotation
      End Site
      {
        OFFSET 0 0 0
      }
    }
    JOINT RightArm
    {
      OFFSET -13.5174 21.3012 0
      CHANNELS 3 Zrotation Xrotation Yrotation
      JOINT RightForeArm
      {
        OFFSET -24.5783 0 0
        CHANNELS 3 Zrotation Xrotation Yrotation
        JOINT RightHand
        {
          OFFSET -24.5783 0 0
          CHANNELS 3 Zrotation Xrotation Yrotation
          End Site
          {
            OFFSET -7.32568 1.52588e-05 0.0169305
          }
        }
      }
    }
  }
  JOINT RightUpLeg
  {
    OFFSET -8.44614 -9.41038 0.835684
    CHANNELS 3 Zrotation Xrotation Yrotation
    JOINT RightLeg
    {
      OFFSET 0 -40.9639 0
      CHANNELS 3 Zrotation Xrotation Yrotation
      JOINT RightFoot
      {
        OFFSET 0 -40.9639 0
        CHANNELS 3 Zrotation Xrotation Yrotation
        End Site
        {
          OFFSET 0.50614 -9.67405 14.6709
        }
      }
    }
  }
  JOINT LeftUpLeg
  {
    OFFSET 8.44614 -9.41038 0.835684
    CHANNELS 3 Zrotation Xrotation Yrotation
    JOINT LeftLeg
    {
      OFFSET 0 -40.9639 0
      CHANNELS 3 Zrotation Xrotation Yrotation
      JOINT LeftFoot
      {
        OFFSET 0 -40.9639 0
        CHANNELS 3 Zrotation Xrotation Yrotation
        End Site
        {
          OFFSET -0.50614 -9.67405 14.6709
        }
      }
    }
  }
}
MOTION
Frames:	12
Frame Time:	0.0333333
0.0305676 100.242 0.136949 -1.20883 7.51194 8.78028 -2.9477 13.4451 1.78721 -80.4778 -2.11991 -10.1978 17.8001 41.2944 -25.1735 30.2868 -4.45937 2.93217 0.492455 -20.7709 -8.12604 62.4681 62.9045 21.8977 -6.86685 -31.2654 16.08 -29.8874 -8.14104 9.98816 -19.4329 -15.1634 -2.10776 -7.75335 19.4711 4.46616 18.6202 -10.9959 0.932016 19.7698 -15.5048 2.81745 7.2445 18.678 2.95623 -23.3574 -6.35265 -0.310563 
-0.267287 99.5073 0.698469 -1.51423 7.01763 9.4857 -3.02586 13.0175 1.98911 -80.2953 -2.42264 -10.0083 21.6976 43.7916 -27.774 24.0795 -6.24041 -0.0881598 0.831114 -21.8745 -8.43227 60.5324 61.2823 24.1293 8.41569 -45.1088 16.5792 -27.8704 -8.18447 9.8195 -17.1162 -16.4643 -0.0386634 -11.0728 24.4569 3.73655 20.3178 -13.9594 1.80937 19.1186 -17.0859 1.08112 9.61131 22.8052 2.99723 -25.388 -8.26478 -1.11365 
-0.522511 97.9038 1.01077 -1.60527 6.33816 10.2786 -2.92072 13.1281 1.96239 -78.7747 -2.96887 -11.7622 23.5325 43.4183 -30.1272 18.8985 -8.49824 -4.26603 0.556045 -23.4448 -8.80843 57.8412 57.7321 28.5737 22.0205 -56.0581 18.6073 -38.7023 -9.20075 11.8338 -14.074 -18.5452 1.93357 -17.1823 31.33 5.03813 23.6549 -17.8754 3.12986 17.3751 -20.2002 -1.08764 14.2714 29.972 1.15074 -28.6821 -11.5942 -2.34551 
-0.651609 96.0455 1.21048 -1.37656 5.47788 11.1384 -2.58049 13.4663 1.5365 -74.8281 -3.84349 -13.8035 20.8487 36.373 -33.2005 19.7533 -11.207 -8.31852 -0.454264 -24.9553 -9.60746 53.6041 52.0022 36.8192 33.1789 -63.7715 22.0658 -50.9876 -12.3851 14.8453 -11.6139 -19.7518 3.41541 -23.5994 36.9345 7.50373 27.2292 -21.2517 4.64432 15.12 -22.5507 -3.38277 19.5774 35.889 -2.30586 -31.9238 -14.7181 -3.659 
-0.658231 94.8307 1.65843 -0.959285 4.28328 11.4379 -2.15919 13.5077 1.15748 -67.9131 -5.41292 -12.9196 15.5369 27.165 -37.2496 22.843 -14.1368 -12.4958 -1.43929 -25.724 -10.7187 50.2853 45.9375 46.5383 52.4983 -69.4617 35.0844 -57.5469 -22.3085 21.5355 -10.4442 -19.5152 4.5821 -26.9681 40.3639 9.40122 29.1492 -23.795 5.77529 13.7521 -22.7667 -4.45364 22.9276 38.9293 -5.48008 -33.7605 -17.0126 -4.61032 
-0.43373 95.2314 2.85258 -0.624019 2.49154 10.5013 -1.6211 12.7019 1.51111 -62.7176 -0.801072 -10.4925 7.81499 17.5065 -42.8934 27.4328 -17.1014 -16.7209 -1.49738 -24.2457 -11.5311 49.203 42.3133 53.9236 57.4315 -65.3122 40.411 -46.9478 -36.3206 35.7034 -9.99202 -16.3591 5.12455 -26.3054 39.0852 8.80174 28.8639 -24.0765 5.75341 14.2528 -19.3431 -2.93674 22.1957 37.6541 -5.801 -33.3008 -17.5926 -4.65316 
0.0976303 97.9194 4.96826 -0.367795 0.557687 8.52845 -0.861227 10.6395 2.45591 -56.4971 -3.86421 -9.81697 -2.1239 9.17176 -50.2935 32.8508 -19.9215 -20.8996 -0.815674 -19.0828 -11.4881 40.3363 39.6311 57.3401 44.8574 -46.7452 39.9379 -9.07467 -33.4626 51.2866 -11.203 -9.21201 3.62686 -20.6224 29.7612 4.61529 25.7913 -19.8876 3.98878 16.0189 -10.736 0.977771 16.5498 28.2812 -2.19958 -29.8505 -14.4235 -3.1389 
0.825109 102.555 7.41857 -0.0376423 -0.748848 6.39144 -0.062829 7.82342 3.4381 -46.1124 -7.03496 -2.64678 -13.6379 3.65073 -58.9439 38.4909 -22.4422 -24.914 -0.220207 -11.3147 -10.6079 30.9393 39.6767 58.0563 39.3962 -26.0317 53.1744 -6.40913 -32.1977 53.0159 -14.227 4.15989 -0.463189 -12.0208 5.26759 -0.225094 20.3582 -6.46439 0.42427 15.9226 4.32731 6.23938 10.6749 4.32796 2.6278 -24.8833 -3.25286 0.158791 
1.20015 107.341 9.27732 0.419148 -1.20718 4.77186 0.305716 5.19211 4.31679 -35.3454 -12.8928 11.4122 -25.3487 1.6252 -67.7073 43.8145 -24.5392 -28.5948 0.0368645 -3.94059 -9.52725 24.9062 40.3646 57.409 32.1836 -11.4915 68.1642 -15.691 -29.4303 43.5473 -16.9555 2.27392 -4.26067 -7.48894 4.50677 6.76296 21.3398 6.88216 -2.31706 15.9946 2.84828 9.76405 8.12411 3.62665 -0.200077 -22.8578 14.2185 3.98641 
1.14083 111.148 10.4794 0.604964 -0.862799 3.89905 0.342744 3.09506 5.03029 -29.9151 -17.8394 14.7055 -35.4712 2.64074 -75.3336 48.3332 -26.1307 -31.7439 0.377796 0.758446 -8.94486 22.1273 41.7253 57.0004 25.8516 -3.49982 80.8977 -28.1516 -26.7274 34.3412 -23.9601 -0.98573 -7.22644 0.185012 4.87026 8.63927 37.8886 21.6312 -6.32331 19.7298 -1.4168 12.1693 2.59519 4.89909 -1.66997 -26.81 34.7485 9.15865 
0.83162 114.679 11.3289 0.581898 0.0149175 3.81425 0.253703 1.41413 5.53048 -25.4379 -23.3087 20.8375 -42.3906 5.41261 -81.2586 51.5868 -27.1668 -34.1355 0.9725 2.89329 -9.28238 22.8578 41.5326 54.6178 20.259 1.06403 91.7552 -33.4111 -24.6318 30.3727 -23.8678 -2.02228 -8.58586 -2.48072 5.05303 4.5164 41.6153 21.0659 -6.76647 19.2447 -3.88754 12.8395 6.69272 5.08693 4.032 -30.7136 36.7168 10.9272 
0.444512 117.251 11.8648 0.466747 0.245208 4.46025 0.29452 0.792988 5.86529 -22.2233 -27.7273 25.2898 -41.7882 8.15944 -85.7845 52.8989 -27.1064 -34.3068 1.50972 4.03784 -10.2951 26.2824 39.2106 49.2728 15.029 3.48 101.274 -29.467 -22.8399 30.5137 -21.8361 -1.15642 -9.20724 -7.38743 4.65022 -2.60584 41.2913 19.6645 -6.6264 19.1188 -4.86754 13.3199 9.46973 4.71775 7.48181 -29.966 35.5636 10.5441 
